<svg width="31" height="29" viewBox="0 0 31 29" fill="none" xmlns="http://www.w3.org/2000/svg">
<g clip-path="url(#clip0_99_126)">
<path d="M15.243 3.20654C18.6392 3.20654 19.0629 3.21827 20.3954 3.27689C21.7267 3.33551 22.6329 3.5313 23.4304 3.82206C24.2554 4.11986 24.9504 4.52317 25.6454 5.17386C26.281 5.75995 26.7728 6.4689 27.0866 7.25139C27.3954 7.99822 27.6054 8.8494 27.6679 10.098C27.7266 11.3478 27.7429 11.7453 27.7429 14.9307C27.7429 18.1162 27.7304 18.5136 27.6679 19.7634C27.6054 21.0121 27.3954 21.8621 27.0866 22.6101C26.7737 23.393 26.2818 24.1021 25.6454 24.6876C25.0204 25.2836 24.2645 25.7448 23.4304 26.0394C22.6342 26.329 21.7267 26.526 20.3954 26.5846C19.0629 26.6397 18.6392 26.6549 15.243 26.6549C11.8467 26.6549 11.423 26.6432 10.0905 26.5846C8.75926 26.526 7.85301 26.329 7.05552 26.0394C6.22093 25.7457 5.46493 25.2843 4.84053 24.6876C4.20479 24.1016 3.71295 23.3926 3.39929 22.6101C3.08929 21.8632 2.88054 21.0121 2.81804 19.7634C2.75929 18.5136 2.74304 18.1162 2.74304 14.9307C2.74304 11.7453 2.75554 11.3478 2.81804 10.098C2.88054 8.84822 3.08929 7.99939 3.39929 7.25139C3.71208 6.46842 4.20404 5.75928 4.84053 5.17386C5.46511 4.57737 6.22106 4.11602 7.05552 3.82206C7.85301 3.5313 8.75801 3.33551 10.0905 3.27689C11.423 3.22178 11.8467 3.20654 15.243 3.20654ZM15.243 9.06864C13.5854 9.06864 11.9957 9.68625 10.8236 10.7856C9.65148 11.885 8.993 13.376 8.993 14.9307C8.993 16.4855 9.65148 17.9765 10.8236 19.0759C11.9957 20.1752 13.5854 20.7928 15.243 20.7928C16.9006 20.7928 18.4903 20.1752 19.6624 19.0759C20.8345 17.9765 21.4929 16.4855 21.4929 14.9307C21.4929 13.376 20.8345 11.885 19.6624 10.7856C18.4903 9.68625 16.9006 9.06864 15.243 9.06864ZM23.3679 8.77553C23.3679 8.38685 23.2033 8.01409 22.9103 7.73925C22.6173 7.46441 22.2198 7.31001 21.8054 7.31001C21.391 7.31001 20.9936 7.46441 20.7006 7.73925C20.4076 8.01409 20.2429 8.38685 20.2429 8.77553C20.2429 9.16421 20.4076 9.53698 20.7006 9.81182C20.9936 10.0867 21.391 10.2411 21.8054 10.2411C22.2198 10.2411 22.6173 10.0867 22.9103 9.81182C23.2033 9.53698 23.3679 9.16421 23.3679 8.77553ZM15.243 11.4135C16.2375 11.4135 17.1913 11.784 17.8946 12.4437C18.5979 13.1033 18.9929 13.9979 18.9929 14.9307C18.9929 15.8636 18.5979 16.7582 17.8946 17.4178C17.1913 18.0774 16.2375 18.448 15.243 18.448C14.2484 18.448 13.2946 18.0774 12.5913 17.4178C11.8881 16.7582 11.493 15.8636 11.493 14.9307C11.493 13.9979 11.8881 13.1033 12.5913 12.4437C13.2946 11.784 14.2484 11.4135 15.243 11.4135Z" fill="#EF1F1F"/>
</g>
<defs>
<clipPath id="clip0_99_126">
<rect width="29.9998" height="28.1381" fill="white" transform="translate(0.243042 0.861816)"/>
</clipPath>
</defs>
</svg>
