<svg width="31" height="29" viewBox="0 0 31 29" fill="none" xmlns="http://www.w3.org/2000/svg">
<g clip-path="url(#clip0_99_130)">
<path d="M23.6608 22.3626H20.3296V17.4654C20.3296 16.2977 20.3046 14.7947 18.5921 14.7947C16.8558 14.7947 16.5908 16.0656 16.5908 17.3799V22.3626H13.2584V12.2927H16.4583V13.6645H16.5021C16.9496 12.8743 18.0371 12.0383 19.6621 12.0383C23.037 12.0383 23.662 14.1229 23.662 16.8347V22.3626H23.6608ZM9.49588 10.9151C9.24157 10.9155 8.9897 10.8687 8.75471 10.7775C8.51972 10.6863 8.30622 10.5526 8.12646 10.3838C7.94669 10.2151 7.8042 10.0148 7.70715 9.79432C7.6101 9.57386 7.56039 9.33759 7.56089 9.09907C7.56114 8.74011 7.67486 8.38929 7.88769 8.09096C8.10051 7.79263 8.40288 7.56019 8.75654 7.42304C9.11021 7.28588 9.4993 7.25018 9.8746 7.32044C10.2499 7.39069 10.5946 7.56375 10.865 7.81774C11.1354 8.07172 11.3195 8.39522 11.3939 8.74732C11.4683 9.09942 11.4298 9.46431 11.2831 9.79586C11.1364 10.1274 10.8882 10.4107 10.5699 10.6099C10.2515 10.8092 9.87733 10.9154 9.49463 10.9151H9.49588ZM11.1659 22.3626H7.82464V12.2927H11.1671V22.3626H11.1659ZM25.3295 4.37891H6.1534C5.2334 4.37891 4.49216 5.05891 4.49216 5.89953V23.9618C4.49216 24.8024 5.23465 25.4824 6.15215 25.4824H25.3245C26.242 25.4824 26.992 24.8024 26.992 23.9618V5.89953C26.992 5.05891 26.242 4.37891 25.3245 4.37891H25.3283H25.3295Z" fill="#EF1F1F"/>
</g>
<defs>
<clipPath id="clip0_99_130">
<rect width="29.9998" height="28.1381" fill="white" transform="translate(0.742188 0.861816)"/>
</clipPath>
</defs>
</svg>
