<svg width="26" height="20" viewBox="0 0 26 20" fill="none" xmlns="http://www.w3.org/2000/svg">
<path d="M25.6949 2.4932C24.7406 2.88911 23.7286 3.14913 22.6924 3.26465C23.7846 2.65198 24.602 1.68776 24.9924 0.551673C23.9674 1.12381 22.8436 1.52478 21.6724 1.74168C20.8857 0.952146 19.8429 0.428526 18.7061 0.25222C17.5694 0.0759133 16.4024 0.256799 15.3865 0.766756C14.3707 1.27671 13.5629 2.08717 13.0889 3.07213C12.6148 4.05709 12.5009 5.16136 12.765 6.21328C10.6864 6.11556 8.65291 5.60892 6.79662 4.72626C4.94033 3.84359 3.3027 2.60463 1.99005 1.08981C1.52541 1.83834 1.28124 2.68926 1.28255 3.55541C1.28255 5.25541 2.20504 6.75728 3.60753 7.63659C2.77755 7.61208 1.96584 7.40185 1.24005 7.02342V7.08438C1.2403 8.21659 1.65801 9.31387 2.42235 10.1902C3.18669 11.0665 4.25063 11.6679 5.43377 11.8925C4.66329 12.0883 3.85542 12.1172 3.07129 11.9769C3.40487 12.9514 4.05504 13.8037 4.93076 14.4145C5.80649 15.0252 6.86392 15.3638 7.955 15.3828C6.87061 16.1816 5.62899 16.772 4.30113 17.1205C2.97327 17.4689 1.58521 17.5684 0.216309 17.4134C2.60591 18.8548 5.38764 19.62 8.22875 19.6175C17.8449 19.6175 23.1036 12.1457 23.1036 5.66576C23.1036 5.45472 23.0974 5.24134 23.0874 5.03265C24.111 4.33878 24.9944 3.47922 25.6961 2.49437L25.6949 2.4932Z" fill="#EF1F1F"/>
</svg>
